<svg id="Calque_1" data-name="Calque 1" xmlns="http://www.w3.org/2000/svg" viewBox="0 0 240 69"><defs><style>.cls-1{fill:#fff;}</style></defs><path class="cls-1" d="M55.93,42.76h5.16V68.55H55.93Z"/><path class="cls-1" d="M94.54,42.76v5.72L73.1,63.39H94.54v5.16H64.88V62.83L86.31,47.9H64.88V42.76Z"/><path class="cls-1" d="M127.56,42.76V47.9h-12V68.55h-5.17V47.9h-12V42.76Z"/><path class="cls-1" d="M157.13,42.76V68.55h5.16V42.76ZM131.35,68.55h5.16V42.76h-5.16Z"/><path class="cls-1" d="M188,46.26a9.88,9.88,0,0,1,7.74-3.5h14.18V68.55h-5.16V47.9h-9a5.17,5.17,0,0,0-5.16,5.17V63.39h-5.16V53.07a5.19,5.19,0,0,0-5.16-5.17h-9V68.55h-5.16V42.76h14.19A9.91,9.91,0,0,1,188,46.26Z"/><path class="cls-1" d="M209.9,63.39v5.16h29.67V63.39Zm0-20.63V47.9h29.67V42.76Z"/><path class="cls-1" d="M.43.45v68.1L30.81,51,48.35,68.55V40.88l11-6.38Zm10.28,17.8L38.85,34.5,10.71,50.75Z"/><rect class="cls-1" x="213.69" y="53.15" width="14.83" height="5"/><rect class="cls-1" x="144" y="53.07" width="5.16" height="5.16" rx="1.31"/></svg>