<svg xmlns="http://www.w3.org/2000/svg" viewBox="0 0 1920 1079.95"><defs><style>.cls-1,.cls-10,.cls-11,.cls-12,.cls-13,.cls-14,.cls-15,.cls-16,.cls-2,.cls-3,.cls-4,.cls-5,.cls-6,.cls-7,.cls-8,.cls-9{fill:none;stroke:#ff1049;stroke-linecap:round;stroke-linejoin:round;stroke-dasharray:1 18;}.cls-1{stroke-width:0.25px;}.cls-2{stroke-width:0.37px;}.cls-3{stroke-width:0.48px;}.cls-4{stroke-width:0.6px;}.cls-5{stroke-width:0.72px;}.cls-6{stroke-width:0.83px;}.cls-7{stroke-width:0.95px;}.cls-8{stroke-width:1.07px;}.cls-9{stroke-width:1.18px;}.cls-10{stroke-width:1.3px;}.cls-11{stroke-width:1.42px;}.cls-12{stroke-width:1.53px;}.cls-13{stroke-width:1.65px;}.cls-14{stroke-width:1.77px;}.cls-15{stroke-width:1.88px;}.cls-16{stroke-width:2px;}</style></defs><g id="Particule"><path class="cls-1" d="M2022,718c-44.23-10.73-109.7-19-176,7-81.54,32-86.38,85.43-151,101-88.94,21.43-124-69.07-250-87-119.14-17-131,57.82-272,60-171.53,2.65-234.31-115.1-329-73-89.92,40-80.9,165.83-144,171-58,4.75-68.25-101.54-192-195-107-80.85-168.91-57.41-207-125-44.19-78.42,34.59-144.43-10-220-47.2-80-163.26-53.15-185-116C81,168.59,223.91,100.85,207,33,177.4-85.72-296.16-21.91-331-146c-10.68-38,23.41-81.15,53-111"/><path class="cls-2" d="M2025.43,736.77c-42.84-8.8-106.64-14.65-172.19,11.32-78.68,31.06-86.25,81.93-150,97-21.93,5.21-40.72,3.8-58.49-1.66-51.83-15.92-96.41-66.15-188.81-79.53-91.78-13.23-120.14,28.15-196.21,43.17-20,3.95-42.64,6.21-70.12,5.72a369.85,369.85,0,0,1-68.72-8c-116.65-24-173.77-95.17-254.58-59.54C824.17,763.91,803,800.92,785.32,835c-19.06,36.75-33.06,69.9-65.14,72.36-58.14,4.28-64.55-104.7-193.65-182.63-41.61-25.11-71.57-32.74-101.8-44-60.92-22.64-105.27-34.61-130.3-85.78-40.85-83.55,44.89-150.39,3.59-226.32-1.16-2.13-2.35-4.23-3.66-6.23-47.91-73.75-170.74-47-191.93-108.79C78.07,182.82,219.72,115.29,207.8,47.79c-3.08-17.41-15.29-31.12-34.66-42.34-80.48-46.6-285.75-42-402.23-79.07-47.83-15.2-81.37-35.71-88.56-67.56-8.64-38.28,24.76-81.15,54-111.15"/><path class="cls-3" d="M2028.87,755.53c-41.46-6.86-103.59-10.24-168.39,15.65-75.82,30.08-86.12,78.42-149.08,93.07-21.44,5-40,3.89-57.63-1.14-50.59-14.45-96.38-60.9-187-74.25-88.76-13-118.72,25.1-192.73,35.38-20,2.78-41.8,3.81-67.92,2.39-24-1.3-45.23-5.24-66.78-9.94-112.79-24.64-169.62-87.64-250.81-52.13-41.06,18.07-63,53.11-81.89,85.37-20.25,34.58-34.94,65.64-66.29,67.78-58.23,4-63.76-105.2-195.3-170.24-50.23-24.84-80.18-25-115.29-36.52-66.4-21.81-118-41.9-141.91-98C250.19,524.41,343.18,456.46,305,380.31c-1.12-2.25-2.26-4.48-3.58-6.6-46.61-74.64-181.39-45.09-202.58-107.44-23.68-69.22,116.7-136.59,109.72-203.7-1.81-17.48-12.47-31.47-30.71-43.18-76.34-49-287.72-42.26-400.47-84.46-45.47-17-76.11-38.75-81.72-71.29-6.63-38.5,26.13-81.16,55-111.31"/><path class="cls-4" d="M2032.3,774.3c-40.07-4.93-100.53-5.84-164.59,20-73,29.11-86,74.92-148.11,89.1-20.94,4.82-39.29,4-56.77-.62-49.33-13-96.35-55.64-185.14-69-85.75-12.71-117.44,21.91-189.25,27.58-20,1.59-41,1.41-65.73-.92-23-2.17-43.22-6.88-64.84-11.89-108.93-25.27-165.46-80.1-247-44.72-40,17.51-62.73,50.58-82.83,81-21.41,32.41-36.82,61.33-67.44,63.21-58.32,3.57-64.72-103.56-196.95-157.87-59.34-24.37-88.75-17.29-128.76-29.05C363,720,304,692,281.3,630.9,246.66,537.51,347.17,468.23,312.05,392a70.91,70.91,0,0,0-3.52-7c-45.35-75.47-192-43.2-213.23-106.1C72.3,211.27,211.47,144,209.39,77.36c-.55-17.59-9.67-31.83-26.77-44C110.41-18.22-107-9-216.08-56.53-259.17-75.3-287-98.29-291-131.54c-4.65-38.7,27.48-81.16,56-111.46"/><path class="cls-5" d="M2035.73,793.07c-38.68-3-97.42-1.3-160.78,24.29-70,28.28-85.85,71.41-147.15,85.14-20.44,4.62-38.56,4.07-55.92-.1-48.05-11.55-96.31-50.39-183.3-63.68-82.74-12.45-116.72,11.64-185.76,19.79-20,2.36-40.17-1-63.53-4.24-22.09-3-41.21-8.51-62.91-13.84C1071.31,814.6,1015,767.69,933.1,803.12c-39,16.87-62.43,48-83.77,76.66-22.56,30.25-38.71,57-68.6,58.65-58.41,3.15-66.71-100.29-198.6-145.5-68.81-23.58-97.3-9.64-142.24-21.59C362.67,750.82,296.12,715,274.73,648.87,243,550.68,351.29,479.92,319.06,403.61a63.26,63.26,0,0,0-3.45-7.32C271.45,320,112.93,355,91.73,291.53c-22.31-66,115.71-133.2,118.46-199.39.73-17.69-6.86-32.2-22.83-44.89C119.27-6.82-104.15,5-209.57-48c-40.72-20.45-65.68-44.76-68-78.73-2.71-38.88,28.83-81.17,56.94-111.61"/><path class="cls-6" d="M2039.17,811.83a390.06,390.06,0,0,0-157,28.62c-67.16,27.32-85.71,67.91-146.18,81.17a125.56,125.56,0,0,1-55.07.42c-46.77-10.13-96.28-45.13-181.46-58.39-79.73-12.19-115.25,7.17-182.28,12-20.16,1.45-39.37-3.47-61.34-7.56-21.17-3.94-39.2-10.12-61-15.78-101.23-26.32-157.24-65.23-239.52-29.9-37.94,16.3-62.12,45.53-84.71,72.31-23.69,28.08-40.59,52.71-69.74,54.07C742.4,951.52,731.64,853,600.67,815.67c-78.52-22.38-105.85-2-155.72-14.13-82.59-20-156.76-63.45-176.78-134.71-28.93-102.93,87.35-175.3,57.91-251.57a59.83,59.83,0,0,0-3.39-7.68c-43-77-213.2-39.47-234.52-103.41C66.67,239.69,203.48,172.61,211,106.93c2-17.81-4-32.6-18.89-45.75-63.95-56.65-293.38-42-395.17-100.62-38.33-22.06-60.49-47.76-61.2-82.46-.79-39,30.2-81.17,57.94-111.77"/><path class="cls-7" d="M2042.6,830.6c-35.91.88-91.29,7.55-153.17,32.94-64.29,26.36-85.58,64.41-145.22,77.2a132.29,132.29,0,0,1-54.21,1c-45.49-8.74-96.25-39.88-179.63-53.11-76.71-11.93-114.08,11.27-178.79,4.2-20.31-2.22-38.58-5.95-59.15-10.88-20.26-4.86-37.18-11.74-59-17.73-97.4-26.75-153.09-57.72-235.75-22.48-36.9,15.72-61.79,43-85.66,67.95-24.79,25.92-42.47,48.38-70.89,49.5-58.61,2.3-72.13-90.4-201.9-120.74-88.38-20.66-114.39,5.52-169.2-6.67-87.95-19.55-169.8-70.58-188.4-146.93-26.23-107.65,98.27-181.71,71.49-257.88a54.63,54.63,0,0,0-3.32-8.05C287.85,341.13,105.94,381.29,84.6,316.8c-20.81-62.89,115-129.91,127.18-195.08,3.36-17.93-1.22-33-14.94-46.61C137,15.82-98.44,33.47-196.56-30.9c-36-23.6-55.34-50.75-54.36-86.18,1.08-39.21,31.55-81.18,58.92-111.92"/><path class="cls-8" d="M2046,849.37c-34.52,2.81-88.22,12-149.37,37.26-61.41,25.39-85.44,60.9-144.25,73.24a140.56,140.56,0,0,1-53.36,1.46c-44.18-7.36-96.21-34.62-177.78-47.83-73.7-11.67-113,7.35-175.31-3.58-20.42-3.59-37.79-8.47-57-14.21-19.36-5.79-35.17-13.33-57.09-19.67-93.58-27.11-148.94-50.21-232-15.07-35.85,15.16-61.43,40.48-86.59,63.6-25.88,23.77-44.36,44-72,44.92-58.72,1.87-75.1-84.31-203.56-108.36-98.34-18.4-122.92,13-182.67.8-93.31-19.13-182.91-77.7-200-159.16-23.6-112.36,109.3-188.17,85.08-264.2a51.69,51.69,0,0,0-3.26-8.4C296,351.72,102.38,394.46,81,329.43,60.91,268.14,195.76,201.17,212.58,136.5c4.69-18,1.61-33.41-11-47.45C146,27.07-95.65,48-190-22.35c-33.65-25.07-50.21-53.74-47.52-89.91,2.93-39.37,32.9-81.18,59.9-112.07"/><path class="cls-9" d="M2049.47,868.13c-33.15,4.75-85.17,16.39-145.57,41.59-58.55,24.42-85.31,57.4-143.29,69.27a150.54,150.54,0,0,1-52.5,2c-42.88-6-96.18-29.37-175.95-42.55-70.69-11.41-112,3.22-171.82-11.38-20.54-5-37-11-54.77-17.52-18.46-6.77-33.17-14.91-55.15-21.62-89.78-27.41-144.79-42.68-228.23-7.66-34.79,14.6-61.05,38-87.53,59.25-26.94,21.64-46.25,39.71-73.19,40.35-58.81,1.41-78.05-77.72-205.2-96-108.34-15.57-131.46,20.55-196.16,8.26C361.46,873.38,264,807.31,248.47,720.73c-21.06-117.06,120.41-194.65,98.65-270.51a48.83,48.83,0,0,0-3.19-8.76c-39.85-79.13-245.11-33.82-266.46-99.39C58,282.37,192,215.47,213.38,151.29c6-18.15,4.44-33.83-7.06-48.31C154.93,38.27-93,62.66-183.55-13.81c-31.35-26.47-45.11-56.73-40.68-93.63,4.75-39.53,34.27-81.19,60.9-112.23"/><path class="cls-10" d="M2052.9,886.9c-31.76,6.68-82.11,20.79-141.76,45.9-55.69,23.45-85.18,53.9-142.33,65.32a163.76,163.76,0,0,1-51.65,2.51c-41.56-4.7-96.14-24.12-174.1-37.27-67.68-11.15-110.88-1.08-168.34-19.17-20.63-6.5-36.2-13.59-52.58-20.84-17.56-7.78-31.16-16.49-53.2-23.57-86-27.65-140.65-35.15-224.47-.25C1010.73,913.58,983.8,935,956,954.43c-28,19.52-48.14,35.36-74.35,35.78-58.91.93-87.94-40.14-206.85-83.61-111.72-40.84-140,28-209.63,15.72-104-18.39-209.29-91.93-223.27-183.62C223.33,616.94,373.53,537.54,354.14,461.87a47.54,47.54,0,0,0-3.13-9.12C312.14,373,95.25,420.82,73.9,354.7,55.14,296.6,188.29,229.79,214.18,166.08c7.41-18.25,7.28-34.27-3.12-49.17C163.94,49.42-90.43,77.5-177-5.27c-29.11-27.81-40-59.73-33.84-97.35,6.54-39.71,35.62-81.19,61.88-112.38"/><path class="cls-11" d="M2056.33,905.67c-30.37,8.62-79,25.19-137.95,50.22-52.83,22.46-85,50.4-141.37,61.35a180.21,180.21,0,0,1-50.79,3c-40.25-3.4-96.11-18.86-172.27-32-64.66-10.89-109.68-5.52-164.85-27-20.69-8-35.39-16.2-50.39-24.16-16.64-8.83-29.17-18-51.26-25.51-82.24-27.83-136.49-27.61-220.71,7.16-32.69,13.49-60.27,33.05-89.41,50.55s-50,31-75.49,31.2c-59,.46-88.14-37-208.51-71.23-123.6-35.19-148.51,35.51-223.11,23.19-109.36-18.06-222.54-99-234.89-195.85C219.2,630.19,378.26,549,361.16,473.53a45.45,45.45,0,0,0-3.07-9.49c-37.92-80.45-266.41-30-287.76-96.71C52.24,310.84,184.61,244.16,215,180.86c8.8-18.34,10.15-34.7.83-50C173,60.55-88.07,92.48-170.53,3.28c-26.92-29.12-35-62.74-27-101.09,8.31-39.88,37-81.19,62.86-112.52"/><path class="cls-12" d="M2059.77,924.43c-29,10.56-76,29.59-134.16,54.55-50,21.46-84.9,46.89-140.4,57.38a202.66,202.66,0,0,1-49.93,3.56c-38.94-2.15-96.08-13.61-170.43-26.7-61.65-10.63-108.39-10.09-161.37-34.76-20.72-9.65-34.56-18.86-48.19-27.48-15.7-9.92-27.19-19.57-49.33-27.46-78.5-28-132.33-20.06-216.94,14.57-31.64,12.95-59.87,30.62-90.36,46.2-30.07,15.36-51.9,26.38-76.64,26.63-59.11.6-88.56-34.07-210.15-58.85-135.37-27.59-157,42.95-236.59,30.65C360.56,965,239.44,876.55,228.77,774.63,215,643.44,383.07,560.44,368.17,485.18a43.87,43.87,0,0,0-3-9.85c-37-81.1-277.08-28.14-298.41-95.36-17.43-54.9,114.2-121.41,149-184.32,10.19-18.42,13-35.15,4.77-50.88C182.16,71.65-85.91,107.58-164,11.82-188.82-18.57-194-53.93-184.19-93c10.06-40.07,38.34-81.2,63.86-112.68"/><path class="cls-13" d="M2063.2,943.2c-27.6,12.49-73,34-130.35,58.87-47.12,20.46-84.77,43.39-139.44,53.42a234.82,234.82,0,0,1-49.08,4.07c-37.63-.91-96-8.35-168.59-21.41-58.64-10.37-107-14.74-157.88-42.56-20.69-11.3-33.69-21.54-46-30.79-14.71-11.06-25.2-21.09-47.39-29.41-74.78-28-128.16-12.5-213.18,22-30.57,12.4-59.46,28.21-91.29,41.84-31.1,13.32-53.79,22.29-77.8,22.07-59.21-.57-89.28-31.43-211.8-46.48-146.71-18-165.57,50.39-250.07,38.11C360.26,995.47,231.16,899.62,222.2,792.6,210.82,656.68,388,571.9,375.19,496.83a43,43,0,0,0-2.93-10.21c-36.13-81.73-287.86-26.21-309.06-94C46.35,339.33,177.35,273,216.57,210.43c11.59-18.48,15.91-35.59,8.71-51.73C191.37,82.74-84,122.76-157.52,20.37c-22.73-31.65-24.95-68.79-13.32-108.54C-159-128.45-131.15-169.37-106-201"/><path class="cls-14" d="M2066.63,962c-26.21,14.42-69.92,38.32-126.54,63.19-44.27,19.44-84.64,39.89-138.48,49.45a320,320,0,0,1-48.22,4.6c-36.31,1-96-3.1-166.75-16.13-55.63-10.11-105.42-19.44-154.4-50.35-20.6-13-32.78-24.26-43.81-34.12-13.67-12.22-23.23-22.58-45.45-31.35-71.1-28-123.94-4.79-209.41,29.39-29.5,11.9-59.06,25.83-92.24,37.49-32.14,11.3-55.68,17.92-78.94,17.49-59.31-1.09-90.39-40.28-213.46-34.1-157.32,7.91-174.09,57.81-263.54,45.58C360,1026,222.85,922.68,215.63,810.57c-9-140.66,177.27-227.2,166.57-302.09a41.44,41.44,0,0,0-2.86-10.56c-35.26-82.37-298.51-24.33-319.71-92.69-16.16-51.67,114.11-117.75,157.73-180,13-18.54,18.82-36,12.66-52.58C200.66,93.83-82.29,138-151,28.91-171.74-4-171-42.92-157.49-83.35s41.05-81.21,65.82-113"/><path class="cls-15" d="M2070.07,980.73a855.4,855.4,0,0,1-122.74,67.52c-41.45,18.37-84.51,36.38-137.51,45.49a368,368,0,0,1-47.38,5.11c-35,1.47-96,2.16-164.91-10.84-52.61-9.85-103.73-24.17-150.91-58.15-20.45-14.72-31.82-27-41.62-37.43-12.56-13.41-21.27-24.06-43.51-33.3-67.44-28-119.78,2.74-205.65,36.8-28.45,11.35-58.66,23.47-93.17,33.14-33.19,9.3-57.57,13.5-80.1,12.92-59.4-1.77-92.13-32.34-215.1-21.72-166.65,14.38-182.61,65.07-277,53-130.76-17.08-275.93-127.57-281.37-244.77-6.76-145.41,188.84-233.67,180.15-308.39a40.73,40.73,0,0,0-2.8-10.93c-34.42-83-309.15-22.44-330.35-91.34C40.58,367.79,170.14,302,218.16,240c14.4-18.59,21.74-36.48,16.6-53.44C210,104.94-80.83,153.21-144.51,37.46c-18.79-34.17-15-74.9.36-116,15.21-40.73,42.41-81.21,66.82-113.14"/><path class="cls-16" d="M2073.5,999.5c-44.58,34.79-150.57,107.3-302,119-58.68,4.53-203.37,15.71-310.5-71.5-46.94-38.21-41.91-58.87-81-76-84.09-36.84-147.33,41.24-296,73-127.69,27.28-129.74-21.47-298-1-175.74,21.38-191.16,72.62-290.5,60.5-136.15-16.61-289.35-134.72-293-257-4.71-157.83,221.9-249.12,191-326-33.61-83.62-319.8-20.55-341-90-19.26-63.1,204.81-155,187-230C219.45,116.07-79.6,168.4-138,46c-33.52-70.26,26.48-168.26,75-233"/></g></svg>